<?xml version="1.0" encoding="UTF-8"?>
<svg version="1.1" xmlns="http://www.w3.org/2000/svg" width="96" height="96">
<path d="M0 0 C1.16466797 -0.04125 2.32933594 -0.0825 3.52929688 -0.125 C11.24670467 -0.19379026 16.5186514 1.15049587 23.21655273 5.00976562 C26.05840792 6.56622 28.8429828 7.56018156 31.9375 8.5 C31.9375 9.49 31.9375 10.48 31.9375 11.5 C32.53175781 11.76167969 33.12601562 12.02335938 33.73828125 12.29296875 C38.12865693 14.70260656 41.38903897 18.65873799 42.8125 23.4375 C42.85375 24.118125 42.895 24.79875 42.9375 25.5 C43.5975 25.5 44.2575 25.5 44.9375 25.5 C48.67327146 34.58462123 49.45239006 42.48982014 49.1875 52.25 C49.16945313 53.53132813 49.15140625 54.81265625 49.1328125 56.1328125 C49.08619741 59.25602336 49.02078138 62.37758874 48.9375 65.5 C47.4525 65.995 47.4525 65.995 45.9375 66.5 C44.82069294 69.34979639 44.82069294 69.34979639 43.9375 72.5 C43.30095658 73.8479743 42.64144612 75.18596724 41.9375 76.5 C41.6075 77.16 41.2775 77.82 40.9375 78.5 C40.2775 78.5 39.6175 78.5 38.9375 78.5 C38.88980469 79.056875 38.84210938 79.61375 38.79296875 80.1875 C36.44668065 86.52997743 27.53228843 91.28001594 21.6640625 94.0390625 C8.02705272 98.54154316 -9.93258679 98.80437574 -23.0625 92.5 C-26.76167736 89.81108073 -29.87584915 86.76631712 -33.0625 83.5 C-34.36259661 82.40181233 -35.67378423 81.31649852 -37 80.25 C-41.64298457 76.27342028 -43.35418292 72.59152693 -44.0625 66.5 C-45.0525 66.5 -46.0425 66.5 -47.0625 66.5 C-47.0625 54.62 -47.0625 42.74 -47.0625 30.5 C-46.0725 30.17 -45.0825 29.84 -44.0625 29.5 C-43.45182856 27.64255793 -43.45182856 27.64255793 -43.0625 25.5 C-41.66727906 22.06560999 -39.66180675 20.09930675 -37.0625 17.5 C-36.546875 16.613125 -36.03125 15.72625 -35.5 14.8125 C-34.0625 12.5 -34.0625 12.5 -31.0625 11.5 C-30.711875 10.695625 -30.36125 9.89125 -30 9.0625 C-27.25998826 5.4386135 -24.49069584 5.43944685 -20.14453125 4.76171875 C-19.11392578 4.63216797 -19.11392578 4.63216797 -18.0625 4.5 C-18.0625 3.84 -18.0625 3.18 -18.0625 2.5 C-12.13439752 -0.21667835 -6.42261643 0.05557699 0 0 Z M-46.0625 62.5 C-45.0625 65.5 -45.0625 65.5 -45.0625 65.5 Z M46.9375 62.5 C47.9375 65.5 47.9375 65.5 47.9375 65.5 Z " fill="#5703FB" transform="translate(47.0625,-0.5)"/>
<path d="M0 0 C0 6.27 0 12.54 0 19 C-1.52625 19.350625 -3.0525 19.70125 -4.625 20.0625 C-11.10911758 22.02238865 -13.89699047 25.37552056 -17.21484375 31.09375 C-18.92483228 34.35550749 -20.19335107 37.39803298 -21 41 C-20.34 41.33 -19.68 41.66 -19 42 C-18.1484375 44.06640625 -18.1484375 44.06640625 -17.375 46.5625 C-17.11460938 47.38878906 -16.85421875 48.21507812 -16.5859375 49.06640625 C-16.29589844 50.02353516 -16.29589844 50.02353516 -16 51 C-15.34 51 -14.68 51 -14 51 C-13.79375 51.78375 -13.5875 52.5675 -13.375 53.375 C-12.23024029 56.23003921 -12.23024029 56.23003921 -9.3515625 57.14453125 C-5.78199215 58.05564536 -2.68070953 58.3003924 1 58.3125 C2.175625 58.32925781 3.35125 58.34601563 4.5625 58.36328125 C9.41118587 57.85086331 12.7306999 56.30663245 16.125 52.8125 C18.05047778 49.92428333 19.5420904 47.02302805 20.97265625 43.8671875 C22.07262876 41.86799792 23.32142797 40.53116202 25 39 C24.2575 38.175 23.515 37.35 22.75 36.5 C20.70089312 34.07780643 19.34750779 31.77033402 18.0625 28.875 C16.1297154 24.84002338 14.0727425 23.03637125 10 21 C7.36 20.34 4.72 19.68 2 19 C2 12.73 2 6.46 2 0 C5.73069283 0.74613857 8.57404607 1.53173403 12 3 C11.34 5.97 10.68 8.94 10 12 C11.32 12.33 12.64 12.66 14 13 C14 13.66 14 14.32 14 15 C14.886875 15.20625 15.77375 15.4125 16.6875 15.625 C20.96539579 17.40073033 22.34400193 19.25035567 25 23 C25 23.66 25 24.32 25 25 C25.66 25 26.32 25 27 25 C27.99 25.99 27.99 25.99 29 27 C31.06874034 27.6425235 31.06874034 27.6425235 33 28 C33 28.66 33 29.32 33 30 C33.556875 30.2475 34.11375 30.495 34.6875 30.75 C37.3993235 32.21585054 39.6152634 34.05455699 42 36 C42.66 36.33 43.32 36.66 44 37 C44 40 44 40 42.42578125 41.6484375 C41.72839844 42.21820313 41.03101562 42.78796875 40.3125 43.375 C37.79308335 45.47525707 35.38275004 47.55770941 33.125 49.9375 C31 52 31 52 29 52 C29 50.68 29 49.36 29 48 C28.34 49.65 27.68 51.3 27 53 C26.34 53 25.68 53 25 53 C24.67 54.32 24.34 55.64 24 57 C23.34 57 22.68 57 22 57 C21.77441406 57.60972656 21.54882812 58.21945313 21.31640625 58.84765625 C19.20246271 62.3039853 15.85231759 63.06081041 12.21484375 64.55859375 C9.73970357 65.83136674 9.73970357 65.83136674 9.19140625 68.66015625 C9.12824219 69.43230469 9.06507812 70.20445313 9 71 C9.99 71.33 10.98 71.66 12 72 C12 72.66 12 73.32 12 74 C11.34 74 10.68 74 10 74 C10 74.66 10 75.32 10 76 C6.62134313 78.88421928 4.87633526 80.03021846 0.375 79.875 C-2.38495372 79.15945644 -4.5714053 78.45715682 -7 77 C-7 76.01 -7 75.02 -7 74 C-7.66 74 -8.32 74 -9 74 C-8.67 71.36 -8.34 68.72 -8 66 C-8.97839844 65.5978125 -8.97839844 65.5978125 -9.9765625 65.1875 C-17.67252248 61.73680408 -21.69000602 57.72498769 -25.375 50.1875 C-26 48 -26 48 -26 45 C-26.66 45 -27.32 45 -28 45 C-27.67 46.98 -27.34 48.96 -27 51 C-30 51 -30 51 -32.3125 48.875 C-33.199375 47.92625 -34.08625 46.9775 -35 46 C-36.10026735 44.89194774 -37.2044202 43.78773961 -38.3125 42.6875 C-39.199375 41.800625 -40.08625 40.91375 -41 40 C-39.50958227 36.20620942 -37.30937488 34.31656242 -34 32 C-33.34 32 -32.68 32 -32 32 C-31.731875 31.360625 -31.46375 30.72125 -31.1875 30.0625 C-30 28 -30 28 -27 27 C-27.33 28.98 -27.66 30.96 -28 33 C-27.34 33 -26.68 33 -26 33 C-25.9175 32.319375 -25.835 31.63875 -25.75 30.9375 C-23.58427708 22.45508523 -18.20861637 17.80574425 -11.1875 13.125 C-9 12 -9 12 -7 12 C-7 10.02 -7 8.04 -7 6 C-7.66 6 -8.32 6 -9 6 C-8.00269864 3.5067466 -7.34925469 2.22532561 -5.0625 0.75 C-3 0 -3 0 0 0 Z " fill="#AACCFB" transform="translate(49,8)"/>
<path d="M0 0 C4.35043888 4.35043888 4.13378609 9.9706844 4.1953125 15.80859375 C4.18210189 18.35163619 4.15837421 20.89464225 4.125 23.4375 C4.11597656 24.74138672 4.10695312 26.04527344 4.09765625 27.38867188 C4.07418397 30.59263832 4.04134727 33.79622264 4 37 C3.01 37.33 2.02 37.66 1 38 C-0.11680706 40.84979639 -0.11680706 40.84979639 -1 44 C-1.63654342 45.3479743 -2.29605388 46.68596724 -3 48 C-3.495 48.99 -3.495 48.99 -4 50 C-4.66 50 -5.32 50 -6 50 C-6.07541016 50.8353125 -6.07541016 50.8353125 -6.15234375 51.6875 C-7.39199413 55.06940333 -9.80034212 56.8498075 -12.5625 59 C-13.12735107 59.44134277 -13.69220215 59.88268555 -14.27416992 60.33740234 C-20.86834402 65.12975786 -28.08821957 66.63905189 -36 68 C-36 67.34 -36 66.68 -36 66 C-35.34 66 -34.68 66 -34 66 C-34 63.69 -34 61.38 -34 59 C-34.99 58.67 -35.98 58.34 -37 58 C-35.68 57.34 -34.36 56.68 -33 56 C-33 55.34 -33 54.68 -33 54 C-32.34 54 -31.68 54 -31 54 C-31.495 53.608125 -31.99 53.21625 -32.5 52.8125 C-34.46148905 50.4423674 -34.11766325 48.99551018 -34 46 C-33.22914062 45.60167969 -32.45828125 45.20335937 -31.6640625 44.79296875 C-30.66117188 44.26316406 -29.65828125 43.73335937 -28.625 43.1875 C-27.12839844 42.40439453 -27.12839844 42.40439453 -25.6015625 41.60546875 C-22.77123883 40.10835316 -22.77123883 40.10835316 -21 37 C-20.34 37 -19.68 37 -19 37 C-18.67 35.68 -18.34 34.36 -18 33 C-17.34 33 -16.68 33 -16 33 C-15.34 30.36 -14.68 27.72 -14 25 C-13 29 -13 29 -14 32 C-8.40032622 27.20497249 -8.40032622 27.20497249 -3.125 22.0625 C-1 20 -1 20 1 20 C1 19.01 1 18.02 1 17 C0.21625 16.7525 -0.5675 16.505 -1.375 16.25 C-4 15 -4 15 -5.3125 13.0625 C-6 11 -6 11 -6 8 C-4.02 7.67 -2.04 7.34 0 7 C0 4.69 0 2.38 0 0 Z M2 34 C3 37 3 37 3 37 Z " fill="#5605F9" transform="translate(92,28)"/>
<path d="M0 0 C1.67337415 0.94993563 3.28054867 2.01473194 4.87109375 3.09765625 C4.87109375 3.75765625 4.87109375 4.41765625 4.87109375 5.09765625 C5.53109375 5.09765625 6.19109375 5.09765625 6.87109375 5.09765625 C10.4026456 10.54213202 10.5764313 15.80457963 9.87109375 22.09765625 C8.04067776 27.67025604 4.97370699 30.74263883 0.05859375 33.91015625 C-5.79538299 36.09104954 -10.26912178 35.67538674 -15.94140625 33.41015625 C-19.62412452 31.61959323 -21.61324676 30.03837092 -23.12890625 26.09765625 C-23.12890625 25.10765625 -23.12890625 24.11765625 -23.12890625 23.09765625 C-23.78890625 23.09765625 -24.44890625 23.09765625 -25.12890625 23.09765625 C-26.18177464 12.13445522 -26.18177464 12.13445522 -23.81640625 7.55859375 C-17.94921903 0.56511613 -8.93797798 -3.78839067 0 0 Z " fill="#9EA5FC" transform="translate(58.12890625,29.90234375)"/>
<path d="M0 0 C3.73069283 0.74613857 6.57404607 1.53173403 10 3 C9.34 5.97 8.68 8.94 8 12 C9.32 12.33 10.64 12.66 12 13 C12 13.66 12 14.32 12 15 C12.886875 15.20625 13.77375 15.4125 14.6875 15.625 C18.96539579 17.40073033 20.34400193 19.25035567 23 23 C23 23.66 23 24.32 23 25 C23.66 25 24.32 25 25 25 C25.66 25.66 26.32 26.32 27 27 C29.06874034 27.6425235 29.06874034 27.6425235 31 28 C31 28.66 31 29.32 31 30 C31.556875 30.2475 32.11375 30.495 32.6875 30.75 C35.3993235 32.21585054 37.6152634 34.05455699 40 36 C40.99 36.495 40.99 36.495 42 37 C42 40 42 40 40.42578125 41.6484375 C39.72839844 42.21820313 39.03101563 42.78796875 38.3125 43.375 C35.79308335 45.47525707 33.38275004 47.55770941 31.125 49.9375 C29 52 29 52 27 52 C27 50.68 27 49.36 27 48 C26.01 50.475 26.01 50.475 25 53 C24.34 52.01 23.68 51.02 23 50 C23.66 48.68 24.32 47.36 25 46 C24.34 46 23.68 46 23 46 C23 45.34 23 44.68 23 44 C22.01 44 21.02 44 20 44 C19.67 46.31 19.34 48.62 19 51 C18.34 51 17.68 51 17 51 C17 51.66 17 52.32 17 53 C16.34 52.67 15.68 52.34 15 52 C15.7631861 50.39218107 16.53587058 48.78886862 17.3125 47.1875 C17.74175781 46.29417969 18.17101562 45.40085938 18.61328125 44.48046875 C19.88221789 42.21068067 21.06556898 40.70751829 23 39 C22.2575 38.175 21.515 37.35 20.75 36.5 C18.70089312 34.07780643 17.34750779 31.77033402 16.0625 28.875 C14.1297154 24.84002338 12.0727425 23.03637125 8 21 C5.36 20.34 2.72 19.68 0 19 C0 12.73 0 6.46 0 0 Z " fill="#A7C5FA" transform="translate(51,8)"/>
<path d="M0 0 C0.99 0 1.98 0 3 0 C3 0.66 3 1.32 3 2 C3.66 2 4.32 2 5 2 C4.69078116 3.45903258 4.37751201 4.91720722 4.0625 6.375 C3.88847656 7.18710937 3.71445313 7.99921875 3.53515625 8.8359375 C3 11 3 11 2 13 C1.34 13 0.68 13 0 13 C-0.22558594 13.60972656 -0.45117188 14.21945313 -0.68359375 14.84765625 C-2.79753729 18.3039853 -6.14768241 19.06081041 -9.78515625 20.55859375 C-12.26029643 21.83136674 -12.26029643 21.83136674 -12.80859375 24.66015625 C-12.90333984 25.81837891 -12.90333984 25.81837891 -13 27 C-12.01 27.33 -11.02 27.66 -10 28 C-10 28.66 -10 29.32 -10 30 C-10.66 30 -11.32 30 -12 30 C-12 30.66 -12 31.32 -12 32 C-15.37865687 34.88421928 -17.12366474 36.03021846 -21.625 35.875 C-24.38495372 35.15945644 -26.5714053 34.45715682 -29 33 C-29 32.01 -29 31.02 -29 30 C-29.66 30 -30.32 30 -31 30 C-30.67 27.36 -30.34 24.72 -30 22 C-30.69867188 21.66226563 -31.39734375 21.32453125 -32.1171875 20.9765625 C-33.02726562 20.53054687 -33.93734375 20.08453125 -34.875 19.625 C-35.77992187 19.18414062 -36.68484375 18.74328125 -37.6171875 18.2890625 C-40 17 -40 17 -42 15 C-42 14.01 -42 13.02 -42 12 C-39.69 12.66 -37.38 13.32 -35 14 C-35 13.34 -35 12.68 -35 12 C-30.25 12.875 -30.25 12.875 -28 14 C-25.75344413 14.14977039 -23.50136232 14.22150174 -21.25 14.25 C-19.43242188 14.28867188 -19.43242188 14.28867188 -17.578125 14.328125 C-12.76037347 13.88632246 -9.42329909 12.42329909 -6 9 C-5.01 9 -4.02 9 -3 9 C-3 8.34 -3 7.68 -3 7 C-2.34 7 -1.68 7 -1 7 C-0.67 4.69 -0.34 2.38 0 0 Z " fill="#BDC6FA" transform="translate(71,52)"/>
<path d="M0 0 C0.66 0 1.32 0 2 0 C2 6.27 2 12.54 2 19 C3.546875 19.2475 5.09375 19.495 6.6875 19.75 C11.18634257 20.69279542 13.88323916 21.45035571 17 25 C18.6249741 27.73745636 20.12796657 30.50583692 21.5703125 33.34375 C22.87432543 35.76650626 24.28843052 37.85294243 26 40 C25.2575 40.66 24.515 41.32 23.75 42 C21.55146729 44.17376051 20.24861583 46.26789056 18.9375 49.0625 C16.98196054 53.21606581 15.02164957 56.00356418 10.8046875 58.08203125 C7.44346433 59.18215304 4.59646289 59.30098872 1.0625 59.3125 C-0.12214844 59.32925781 -1.30679688 59.34601563 -2.52734375 59.36328125 C-6.35212434 58.9631636 -8.7486519 58.02668966 -12 56 C-13.375 53.3125 -13.375 53.3125 -14 51 C-14.66 51 -15.32 51 -16 51 C-19 45.375 -19 45.375 -19 42 C-19.99 41.67 -20.98 41.34 -22 41 C-20.54242246 33.62535171 -15.92090524 25.58870156 -10 21 C-6.31667504 19.42143216 -4.04306781 19 0 19 C0 12.73 0 6.46 0 0 Z M-14.6875 29.4609375 C-17.21205901 34.34475701 -16.51252071 39.66327639 -16 45 C-15.34 45 -14.68 45 -14 45 C-13.938125 45.9075 -13.87625 46.815 -13.8125 47.75 C-12.7870409 51.85183641 -11.54763679 52.79258155 -8 55 C-2.73542334 57.33981185 2.64262855 58.12929767 8.1484375 56.27734375 C12.49601516 54.28133691 15.41477324 52.13636281 18 48 C19.94113119 41.92907963 19.88333756 35.17153817 17.5 29.3125 C17.005 28.549375 16.51 27.78625 16 27 C15.34 27 14.68 27 14 27 C14 26.34 14 25.68 14 25 C3.85724803 18.09429653 -6.6830902 19.91996689 -14.6875 29.4609375 Z " fill="#6428F5" transform="translate(49,8)"/>
<path d="M0 0 C0 6.27 0 12.54 0 19 C-1.52625 19.350625 -3.0525 19.70125 -4.625 20.0625 C-10.23362803 21.71490033 -12.68971805 24.35889524 -16 29 C-16.66 29.66 -17.32 30.32 -18 31 C-18.495 28.525 -18.495 28.525 -19 26 C-19.66 26 -20.32 26 -21 26 C-21 26.66 -21 27.32 -21 28 C-21.66 28 -22.32 28 -23 28 C-23.33 29.65 -23.66 31.3 -24 33 C-26.475 33.495 -26.475 33.495 -29 34 C-29 33.34 -29 32.68 -29 32 C-29.66 32 -30.32 32 -31 32 C-31 32.66 -31 33.32 -31 34 C-31.66 34 -32.32 34 -33 34 C-33 34.66 -33 35.32 -33 36 C-35.90600261 37.25664978 -37.79604584 38 -41 38 C-39.8803014 36.99406757 -38.7540588 35.9954151 -37.625 35 C-36.99851562 34.443125 -36.37203125 33.88625 -35.7265625 33.3125 C-34 32 -34 32 -32 32 C-31.731875 31.360625 -31.46375 30.72125 -31.1875 30.0625 C-30 28 -30 28 -27 27 C-27.33 28.98 -27.66 30.96 -28 33 C-27.34 33 -26.68 33 -26 33 C-25.9175 32.319375 -25.835 31.63875 -25.75 30.9375 C-23.58427708 22.45508523 -18.20861637 17.80574425 -11.1875 13.125 C-9 12 -9 12 -7 12 C-7 10.02 -7 8.04 -7 6 C-7.66 6 -8.32 6 -9 6 C-8.00269864 3.5067466 -7.34925469 2.22532561 -5.0625 0.75 C-3 0 -3 0 0 0 Z " fill="#95BBFC" transform="translate(49,8)"/>
<path d="M0 0 C3.73069283 0.74613857 6.57404607 1.53173403 10 3 C9.34 5.97 8.68 8.94 8 12 C9.32 12.33 10.64 12.66 12 13 C12 13.66 12 14.32 12 15 C12.886875 15.20625 13.77375 15.4125 14.6875 15.625 C19.11896666 17.46447673 20.51373473 18.88212315 23 23 C22.43182976 26.40902145 21.53407737 28.93184527 20 32 C19.67 32.99 19.34 33.98 19 35 C18.56300781 33.98679687 18.56300781 33.98679687 18.1171875 32.953125 C15.57418872 27.41930376 13.72682391 23.69497596 8 21 C5.36 20.34 2.72 19.68 0 19 C0 12.73 0 6.46 0 0 Z " fill="#90B4FC" transform="translate(51,8)"/>
<path d="M0 0 C2.31 0.66 4.62 1.32 7 2 C7 1.34 7 0.68 7 0 C11.84688192 0.78175515 16.3766367 2.39844278 21 4 C21.19484938 6.43711614 21.38115178 8.87437398 21.5625 11.3125 C21.61857422 12.00279297 21.67464844 12.69308594 21.73242188 13.40429688 C21.96581505 16.62512274 22.03224218 18.90327345 21 22 C21.66 22.33 22.32 22.66 23 23 C19.05272412 23.17942163 16.4019487 23.09350689 13 21 C13 20.01 13 19.02 13 18 C12.34 18 11.68 18 11 18 C11.33 15.36 11.66 12.72 12 10 C11.30132812 9.66226563 10.60265625 9.32453125 9.8828125 8.9765625 C8.97273438 8.53054687 8.06265625 8.08453125 7.125 7.625 C6.22007813 7.18414062 5.31515625 6.74328125 4.3828125 6.2890625 C2 5 2 5 0 3 C0 2.01 0 1.02 0 0 Z " fill="#C2D6F9" transform="translate(29,64)"/>
<path d="M0 0 C0.99 0 1.98 0 3 0 C3 0.66 3 1.32 3 2 C3.66 2 4.32 2 5 2 C4.69078116 3.45903258 4.37751201 4.91720722 4.0625 6.375 C3.80146484 7.59316406 3.80146484 7.59316406 3.53515625 8.8359375 C3 11 3 11 2 13 C1.34 13 0.68 13 0 13 C-0.226875 13.598125 -0.45375 14.19625 -0.6875 14.8125 C-2.37944501 17.63240835 -4.05153881 18.59597086 -7 20 C-8.32 20 -9.64 20 -11 20 C-11 19.34 -11 18.68 -11 18 C-11.99 17.67 -12.98 17.34 -14 17 C-13.01 16.67 -12.02 16.34 -11 16 C-10.29848848 14.6846659 -9.63474075 13.34882408 -9 12 C-7.5625 10.25 -7.5625 10.25 -6 9 C-5.01 9 -4.02 9 -3 9 C-3 8.34 -3 7.68 -3 7 C-2.34 7 -1.68 7 -1 7 C-0.67 4.69 -0.34 2.38 0 0 Z " fill="#BCD6FB" transform="translate(71,52)"/>
<path d="M0 0 C1.921875 0.91015625 1.921875 0.91015625 2.96875 2.9765625 C3.20078125 3.80027344 3.4328125 4.62398437 3.671875 5.47265625 C3.91421875 6.29894531 4.1565625 7.12523437 4.40625 7.9765625 C4.57640625 8.61464844 4.7465625 9.25273438 4.921875 9.91015625 C5.581875 9.91015625 6.241875 9.91015625 6.921875 9.91015625 C7.984375 12.28515625 7.984375 12.28515625 8.921875 14.91015625 C8.591875 15.57015625 8.261875 16.23015625 7.921875 16.91015625 C3.96360781 16.34468951 1.162166 15.27469293 -2.078125 12.91015625 C-4.44738018 9.593199 -4.61913614 5.88805972 -5.078125 1.91015625 C-2.078125 -0.08984375 -2.078125 -0.08984375 0 0 Z " fill="#B5D1FB" transform="translate(28.078125,49.08984375)"/>
<path d="M0 0 C0.66 0 1.32 0 2 0 C2 0.66 2 1.32 2 2 C2.66 2 3.32 2 4 2 C4 2.66 4 3.32 4 4 C4.66 4 5.32 4 6 4 C6 4.66 6 5.32 6 6 C7.32 5.34 8.64 4.68 10 4 C10 4.66 10 5.32 10 6 C11.98 6 13.96 6 16 6 C16.33 7.65 16.66 9.3 17 11 C17.99 11.33 18.98 11.66 20 12 C20.33 12.99 20.66 13.98 21 15 C21.99 15.33 22.98 15.66 24 16 C24 16.99 24 17.98 24 19 C17.90350257 17.72598836 14.35110712 15.30559046 9.75 11.1875 C9.13898437 10.66607422 8.52796875 10.14464844 7.8984375 9.60742188 C4.55781194 6.68619799 2.04592495 4.0103094 0 0 Z " fill="#5105E2" transform="translate(6,74)"/>
<path d="M0 0 C0.66 0 1.32 0 2 0 C2 6.27 2 12.54 2 19 C3.546875 19.2475 5.09375 19.495 6.6875 19.75 C11.06362131 20.63018304 13.9095901 21.61051818 17 25 C17.8125 27.25 17.8125 27.25 18 29 C17.34 29 16.68 29 16 29 C16 28.34 16 27.68 16 27 C15.34 27 14.68 27 14 27 C14 26.34 14 25.68 14 25 C13.030625 24.690625 12.06125 24.38125 11.0625 24.0625 C8 23 8 23 7 22 C5.15400312 21.60545777 3.29774178 21.25823134 1.4375 20.9375 C-0.08037109 20.67259766 -0.08037109 20.67259766 -1.62890625 20.40234375 C-2.41136719 20.26957031 -3.19382813 20.13679688 -4 20 C-2.68 19.67 -1.36 19.34 0 19 C0 12.73 0 6.46 0 0 Z " fill="#5630F2" transform="translate(49,8)"/>
<path d="M0 0 C0.33 0.66 0.66 1.32 1 2 C2.98 2 4.96 2 7 2 C7.28125 4.26171875 7.28125 4.26171875 7 7 C5.03125 9.01953125 5.03125 9.01953125 2.5 10.8125 C1.6646875 11.41707031 0.829375 12.02164063 -0.03125 12.64453125 C-0.6809375 13.09183594 -1.330625 13.53914063 -2 14 C-2.66 13.01 -3.32 12.02 -4 11 C-3.125 7.3125 -3.125 7.3125 -2 4 C-1.34 4 -0.68 4 0 4 C-0.33 3.01 -0.66 2.02 -1 1 C-0.67 0.67 -0.34 0.34 0 0 Z " fill="#5E01FC" transform="translate(79,74)"/>
<path d="M0 0 C0.66 0 1.32 0 2 0 C2 0.66 2 1.32 2 2 C2.66 2 3.32 2 4 2 C4 2.66 4 3.32 4 4 C4.66 4 5.32 4 6 4 C6 4.66 6 5.32 6 6 C6.66 6 7.32 6 8 6 C8 5.34 8 4.68 8 4 C9.32 4 10.64 4 12 4 C12 4.66 12 5.32 12 6 C15.3 6 18.6 6 22 6 C22 5.34 22 4.68 22 4 C22.99 4.33 23.98 4.66 25 5 C24 7 24 7 21.9375 8.125 C15.01689541 10.18645669 10.22883664 9.05537612 3.8828125 6.0703125 C2 5 2 5 0 3 C0 2.01 0 1.02 0 0 Z " fill="#7C82FD" transform="translate(36,56)"/>
<path d="M0 0 C1.03125 0.78375 2.0625 1.5675 3.125 2.375 C9.92361815 7.15570161 15.89741547 7.25951338 24 7 C24.33 7.66 24.66 8.32 25 9 C22.08999203 10.45500399 19.4910667 10.20897384 16.25 10.25 C15.03828125 10.27578125 13.8265625 10.3015625 12.578125 10.328125 C8.67384904 9.97009096 6.31950315 9.04913611 3 7 C0 2.9 0 2.9 0 0 Z " fill="#5B1FF4" transform="translate(34,57)"/>
<path d="M0 0 C3.73069283 0.74613857 6.57404607 1.53173403 10 3 C9.67 3.99 9.34 4.98 9 6 C9 5.34 9 4.68 9 4 C6.69 4 4.38 4 2 4 C2 8.62 2 13.24 2 18 C3.32 18.33 4.64 18.66 6 19 C3 20 3 20 0 19 C0 12.73 0 6.46 0 0 Z " fill="#8284F9" transform="translate(51,8)"/>
<path d="M0 0 C1.32 0.33 2.64 0.66 4 1 C4 1.99 4 2.98 4 4 C4.61875 4.268125 5.2375 4.53625 5.875 4.8125 C8 6 8 6 10 9 C9.67 9.66 9.34 10.32 9 11 C8.34 11 7.68 11 7 11 C7 10.34 7 9.68 7 9 C6.34 9 5.68 9 5 9 C5 10.32 5 11.64 5 13 C4.01 12.67 3.02 12.34 2 12 C2.66 10.35 3.32 8.7 4 7 C3.01 6.67 2.02 6.34 1 6 C0.67 4.02 0.34 2.04 0 0 Z " fill="#4904E5" transform="translate(75,7)"/>
<path d="M0 0 C0 0.66 0 1.32 0 2 C-0.66 2 -1.32 2 -2 2 C-2.185625 3.3303125 -2.185625 3.3303125 -2.375 4.6875 C-2.94412736 7.70387502 -3.76614436 10.20326054 -5 13 C-5.99 12.67 -6.98 12.34 -8 12 C-7.34 12 -6.68 12 -6 12 C-6 10.02 -6 8.04 -6 6 C-6.66 6 -7.32 6 -8 6 C-6.98565881 3.46414701 -6.34981128 2.21863205 -4 0.75 C-2 0 -2 0 0 0 Z " fill="#7BA1F4" transform="translate(48,8)"/>
<path d="M0 0 C0.66 0 1.32 0 2 0 C2 0.66 2 1.32 2 2 C2.66 2 3.32 2 4 2 C4 2.66 4 3.32 4 4 C4.66 4 5.32 4 6 4 C6 4.66 6 5.32 6 6 C7.32 5.34 8.64 4.68 10 4 C10 4.66 10 5.32 10 6 C11.32 6 12.64 6 14 6 C13.67 7.32 13.34 8.64 13 10 C7.79329712 9.68444225 4.42269244 6.69871603 1 3 C0.67 2.01 0.34 1.02 0 0 Z " fill="#3407D5" transform="translate(6,74)"/>
<path d="M0 0 C1.98 0 3.96 0 6 0 C5.61479436 2.53910197 5.29902057 3.72751123 3.37109375 5.484375 C2.73300781 5.90203125 2.09492187 6.3196875 1.4375 6.75 C0.79683594 7.17796875 0.15617187 7.6059375 -0.50390625 8.046875 C-1.24447266 8.51867187 -1.24447266 8.51867187 -2 9 C-2 8.01 -2 7.02 -2 6 C-1.34 6 -0.68 6 0 6 C0 5.34 0 4.68 0 4 C-0.66 4 -1.32 4 -2 4 C-2 3.34 -2 2.68 -2 2 C-1.34 2 -0.68 2 0 2 C0 1.34 0 0.68 0 0 Z " fill="#2509CA" transform="translate(80,78)"/>
<path d="M0 0 C1.98 0.66 3.96 1.32 6 2 C5.25 7.75 5.25 7.75 3 10 C3 9.34 3 8.68 3 8 C2.01 8 1.02 8 0 8 C0 5.36 0 2.72 0 0 Z M1 4 C2 7 2 7 2 7 Z " fill="#5607EE" transform="translate(0,58)"/>
<path d="M0 0 C0.66 0 1.32 0 2 0 C2 3.3 2 6.6 2 10 C1.01 10.495 1.01 10.495 0 11 C0 10.01 0 9.02 0 8 C-0.99 7.67 -1.98 7.34 -3 7 C-2.38722388 4.03824877 -1.74627478 2.61941217 0 0 Z " fill="#610FFC" transform="translate(30,42)"/>
<path d="M0 0 C3.125 -0.1875 3.125 -0.1875 6 0 C6 1.32 6 2.64 6 4 C5.01 4 4.02 4 3 4 C2.67 4.66 2.34 5.32 2 6 C0.35 6 -1.3 6 -3 6 C-2 3 -2 3 0 0 Z " fill="#5204DE" transform="translate(6,22)"/>
<path d="M0 0 C1.32 0 2.64 0 4 0 C2.80805531 5.52628901 1.4008703 8.17819158 -3 12 C-2.25749403 7.91621717 -1.17076699 3.98060777 0 0 Z " fill="#000000" transform="translate(3,11)"/>
<path d="M0 0 C1 4 1 4 0 7 C0.66 7.33 1.32 7.66 2 8 C0.8803014 9.00593243 -0.2459412 10.0045849 -1.375 11 C-2.00148438 11.556875 -2.62796875 12.11375 -3.2734375 12.6875 C-5 14 -5 14 -7 14 C-7 13.34 -7 12.68 -7 12 C-6.34 12 -5.68 12 -5 12 C-4.67 10.68 -4.34 9.36 -4 8 C-3.34 8 -2.68 8 -2 8 C-1.34 5.36 -0.68 2.72 0 0 Z " fill="#6122F6" transform="translate(78,53)"/>
<path d="M0 0 C0.33 0 0.66 0 1 0 C1 3.63 1 7.26 1 11 C1.66 11 2.32 11 3 11 C3.33 12.65 3.66 14.3 4 16 C3.01 16.33 2.02 16.66 1 17 C-1.37706418 13.33460332 -1.05094317 10.50943165 -0.625 6.25 C-0.51414062 5.07953125 -0.40328125 3.9090625 -0.2890625 2.703125 C-0.19367187 1.81109375 -0.09828125 0.9190625 0 0 Z " fill="#623BEE" transform="translate(32,42)"/>
<path d="M0 0 C0.33 0.66 0.66 1.32 1 2 C1.66 2.33 2.32 2.66 3 3 C2 4 2 4 -1.0625 4.0625 C-2.031875 4.041875 -3.00125 4.02125 -4 4 C-4 4.66 -4 5.32 -4 6 C-5.32 5.67 -6.64 5.34 -8 5 C-3.375 0 -3.375 0 0 0 Z " fill="#7506EC" transform="translate(14,16)"/>
<path d="M0 0 C1.32 0.33 2.64 0.66 4 1 C3.01 1.495 3.01 1.495 2 2 C1.27306096 3.97888961 0.60183749 5.97954558 0 8 C-0.33 7.34 -0.66 6.68 -1 6 C-1.66 6 -2.32 6 -3 6 C-3 5.01 -3 4.02 -3 3 C-2.34 3 -1.68 3 -1 3 C-0.67 2.01 -0.34 1.02 0 0 Z " fill="#4504E0" transform="translate(91,64)"/>
<path d="M0 0 C1.485 0.99 1.485 0.99 3 2 C5.11280345 2.63292383 5.11280345 2.63292383 7 3 C6.34 4.65 5.68 6.3 5 8 C4.01 8 3.02 8 2 8 C0.74335022 5.09399739 0 3.20395416 0 0 Z " fill="#807AF4" transform="translate(75,33)"/>
<path d="M0 0 C3.16115776 1.36983503 3.9927092 1.9890638 6 5 C5.01 5.33 4.02 5.66 3 6 C2.34 5.67 1.68 5.34 1 5 C0.67 5.66 0.34 6.32 0 7 C0 4.69 0 2.38 0 0 Z " fill="#5617F1" transform="translate(69,43)"/>
<path d="M0 0 C1.9375 0.1875 1.9375 0.1875 4 1 C6.35535899 4.17973464 6.17494335 7.15124621 6 11 C3 7.25 3 7.25 3 5 C2.34 4.67 1.68 4.34 1 4 C1 3.34 1 2.68 1 2 C0.34 1.67 -0.32 1.34 -1 1 C-0.67 0.67 -0.34 0.34 0 0 Z " fill="#AFAEFB" transform="translate(61,34)"/>
<path d="M0 0 C2.47404048 2.47404048 2.62417895 3.54244635 3 7 C2.78970565 9.69877747 2.40881038 12.32002085 2 15 C1.67 15 1.34 15 1 15 C0.92652344 13.98679687 0.92652344 13.98679687 0.8515625 12.953125 C0.77679688 12.06109375 0.70203125 11.1690625 0.625 10.25 C0.55539063 9.36828125 0.48578125 8.4865625 0.4140625 7.578125 C0.00149945 5.00933618 -0.71160957 3.24158985 -2 1 C-1.34 0.67 -0.68 0.34 0 0 Z " fill="#7741FB" transform="translate(67,36)"/>
<path d="M0 0 C1.32 0.33 2.64 0.66 4 1 C4.33 2.65 4.66 4.3 5 6 C4.01 6.33 3.02 6.66 2 7 C0 4 0 4 0 0 Z " fill="#6107D0" transform="translate(75,7)"/>
<path d="M0 0 C0.99 0.33 1.98 0.66 3 1 C2.01 1.495 2.01 1.495 1 2 C1.57584432 4.38564077 2.22227595 6.66682784 3 9 C1.68 9 0.36 9 -1 9 C-1.97608217 6.07175348 -2.08226668 4.04386724 -2 1 C-1.34 0.67 -0.68 0.34 0 0 Z " fill="#5306B1" transform="translate(21,5)"/>
<path d="M0 0 C0.66 0 1.32 0 2 0 C2 0.66 2 1.32 2 2 C2.66 2 3.32 2 4 2 C4 2.66 4 3.32 4 4 C4.66 4 5.32 4 6 4 C6 4.66 6 5.32 6 6 C6.99 6.33 7.98 6.66 9 7 C3.53571429 6.39285714 3.53571429 6.39285714 1.125 4.625 C0 3 0 3 0 0 Z " fill="#7776FD" transform="translate(36,56)"/>
<path d="M0 0 C0.66 0.33 1.32 0.66 2 1 C0.7260411 3.03833424 -0.61061923 5.03852126 -2 7 C-2.66 7 -3.32 7 -4 7 C-4.33 6.01 -4.66 5.02 -5 4 C-3 1 -3 1 0 0 Z " fill="#9EB7F8" transform="translate(29,41)"/>
<path d="M0 0 C-0.33 1.98 -0.66 3.96 -1 6 C-0.34 6 0.32 6 1 6 C1.33 5.01 1.66 4.02 2 3 C2 4.32 2 5.64 2 7 C0.68 7 -0.64 7 -2 7 C-2.33 6.01 -2.66 5.02 -3 4 C-3.66 3.67 -4.32 3.34 -5 3 C-2.25 0 -2.25 0 0 0 Z " fill="#9096FA" transform="translate(22,35)"/>
<path d="M0 0 C2.94545056 2.43319829 3.32286717 4.32413607 4 8 C4.66 8.33 5.32 8.66 6 9 C4.35 8.67 2.7 8.34 1 8 C1.33 7.01 1.66 6.02 2 5 C1.34 5 0.68 5 0 5 C0 3.35 0 1.7 0 0 Z " fill="#5A08D5" transform="translate(86,17)"/>
<path d="M0 0 C0.66 0 1.32 0 2 0 C2 0.66 2 1.32 2 2 C3.32 2 4.64 2 6 2 C6 2.66 6 3.32 6 4 C6.66 4.33 7.32 4.66 8 5 C6.02 5 4.04 5 2 5 C1.34 3.35 0.68 1.7 0 0 Z " fill="#CDE5F9" transform="translate(44,82)"/>
<path d="M0 0 C0.33 1.32 0.66 2.64 1 4 C1.66 4 2.32 4 3 4 C3 4.66 3 5.32 3 6 C0.03 5.505 0.03 5.505 -3 5 C-3 4.01 -3 3.02 -3 2 C-2.01 1.34 -1.02 0.68 0 0 Z " fill="#6E07F5" transform="translate(37,90)"/>
<path d="M0 0 C1.32 0 2.64 0 4 0 C3.67 1.32 3.34 2.64 3 4 C3 3.01 3 2.02 3 1 C2.34 1 1.68 1 1 1 C1.33 2.98 1.66 4.96 2 7 C1.01 7 0.02 7 -1 7 C-0.67 4.69 -0.34 2.38 0 0 Z " fill="#ABA6FF" transform="translate(20,52)"/>
<path d="M0 0 C0.66 0 1.32 0 2 0 C2.66 2.31 3.32 4.62 4 7 C2.68 6.67 1.36 6.34 0 6 C0 4.02 0 2.04 0 0 Z " fill="#6033F2" transform="translate(21,53)"/>
<path d="M0 0 C0.99 0.33 1.98 0.66 3 1 C2 3 1 5 0 7 C-0.66 7 -1.32 7 -2 7 C-2 5.68 -2 4.36 -2 3 C-1.34 3 -0.68 3 0 3 C0 2.01 0 1.02 0 0 Z " fill="#8291FB" transform="translate(64,53)"/>
<path d="M0 0 C0.66 0 1.32 0 2 0 C0.95125002 2.62187494 0.35068687 3.79371361 -2.125 5.25 C-2.74375 5.4975 -3.3625 5.745 -4 6 C-4 5.01 -4 4.02 -4 3 C-2.68 2.67 -1.36 2.34 0 2 C0 1.34 0 0.68 0 0 Z " fill="#6A1FFB" transform="translate(94,46)"/>
<path d="M0 0 C0.33 0.66 0.66 1.32 1 2 C3.02463255 2.65213292 3.02463255 2.65213292 5 3 C4.01 3.495 4.01 3.495 3 4 C2.01 5.485 2.01 5.485 1 7 C1 6.01 1 5.02 1 4 C0.01 4 -0.98 4 -2 4 C-1.34 2.68 -0.68 1.36 0 0 Z " fill="#4C09B7" transform="translate(13,12)"/>
<path d="M0 0 C1.98 0.99 1.98 0.99 4 2 C4 1.34 4 0.68 4 0 C4.66 0 5.32 0 6 0 C5.34 1.98 4.68 3.96 4 6 C3.67 5.34 3.34 4.68 3 4 C2.01 4 1.02 4 0 4 C0 2.68 0 1.36 0 0 Z " fill="#3207A5" transform="translate(0,62)"/>
<path d="M0 0 C-0.33 1.32 -0.66 2.64 -1 4 C-2.98 4 -4.96 4 -7 4 C-5.53303752 1.06607504 -3.25996861 0 0 0 Z " fill="#7E09F2" transform="translate(28,4)"/>
<path d="M0 0 C0.99 0.33 1.98 0.66 3 1 C2.01 1.33 1.02 1.66 0 2 C0 1.34 0 0.68 0 0 Z " fill="#000000" transform="translate(0,3)"/>
<path d="M0 0 C0.99 0 1.98 0 3 0 C3 0.66 3 1.32 3 2 C2.01 1.67 1.02 1.34 0 1 C0 0.67 0 0.34 0 0 Z " fill="#020000" transform="translate(25,0)"/>
<path d="M0 0 C2 1 2 1 2 1 Z " fill="#001400" transform="translate(64,95)"/>
<path d="" fill="#000301" transform="translate(0,0)"/>
<path d="" fill="#010400" transform="translate(0,0)"/>
<path d="" fill="#050400" transform="translate(0,0)"/>
<path d="" fill="#000000" transform="translate(0,0)"/>
</svg>
