<svg version="1.1" id="Layer_1" xmlns="http://www.w3.org/2000/svg" xmlns:xlink="http://www.w3.org/1999/xlink" x="0px" y="0px"
	 width="100%" viewBox="0 0 60 59" enable-background="new 0 0 60 59" xml:space="preserve">
<path fill="#010101" opacity="1.000000" stroke="none" 
	d="
M35.000011,60.000000 
	C23.333342,60.000000 12.166675,60.000000 1.000006,60.000000 
	C1.000004,40.333336 1.000004,20.666672 1.000002,1.000006 
	C20.999998,1.000004 40.999996,1.000004 60.999992,1.000002 
	C60.999996,20.666664 60.999996,40.333328 61.000000,59.999996 
	C52.500004,60.000000 44.000011,60.000000 35.000011,60.000000 
M40.658382,37.929565 
	C40.324982,40.436779 39.991581,42.943993 39.658180,45.451202 
	C40.261189,45.487720 40.864197,45.524235 41.467205,45.560753 
	C43.069782,42.859829 43.888683,40.143757 41.136761,36.635479 
	C42.086006,34.892323 43.173489,33.208904 43.957607,31.394390 
	C46.002819,26.661600 44.210419,19.482092 40.372204,17.789738 
	C33.590935,14.799727 26.583485,15.900452 19.721317,16.514076 
	C21.983812,24.485209 23.579529,31.767979 18.938124,40.193401 
	C26.380184,39.153679 33.822243,38.113956 40.658382,37.929565 
M30.649992,47.452728 
	C31.164333,48.206341 31.678675,48.959953 33.112907,51.061390 
	C33.919250,47.080883 34.456303,44.429737 35.042278,41.537079 
	C29.321701,40.611382 29.932079,43.708153 30.649992,47.452728 
M14.555208,26.304695 
	C13.537626,30.674809 17.192272,29.922554 19.524895,31.246668 
	C19.524895,28.554796 19.524895,26.389544 19.524895,23.532551 
	C17.646490,24.539965 16.381811,25.218227 14.555208,26.304695 
z"/>
<path fill="#4E4951" opacity="1.000000" stroke="none" 
	d="
M41.264301,37.074234 
	C33.822243,38.113956 26.380184,39.153679 18.938124,40.193401 
	C23.579529,31.767979 21.983812,24.485209 19.721317,16.514076 
	C26.583485,15.900452 33.590935,14.799727 40.372204,17.789738 
	C44.210419,19.482092 46.002819,26.661600 43.957607,31.394390 
	C43.173489,33.208904 42.086006,34.892323 41.256954,37.021828 
	C41.377148,37.408180 41.264301,37.074234 41.264301,37.074234 
M37.987888,27.609533 
	C37.167534,25.651485 36.764946,23.298370 35.400166,21.855164 
	C34.219498,20.606653 31.906727,19.843988 30.174210,19.969398 
	C29.404501,20.025114 28.524986,22.741787 28.247635,24.346121 
	C27.913578,26.278473 27.925861,28.351482 28.240524,30.290188 
	C28.502373,31.903463 29.430157,34.730717 30.042009,34.725128 
	C32.145393,34.705917 34.521492,34.083874 36.235561,32.890171 
	C37.330715,32.127483 37.441685,29.951584 37.987888,27.609533 
z"/>
<path fill="#47414A" opacity="1.000000" stroke="none" 
	d="
M30.542374,47.088799 
	C29.932079,43.708153 29.321701,40.611382 35.042278,41.537079 
	C34.456303,44.429737 33.919250,47.080883 33.112907,51.061390 
	C31.678675,48.959953 31.164333,48.206341 30.542374,47.088799 
z"/>
<path fill="#4A444F" opacity="1.000000" stroke="none" 
	d="
M14.836170,26.100594 
	C16.381811,25.218227 17.646490,24.539965 19.524895,23.532551 
	C19.524895,26.389544 19.524895,28.554796 19.524895,31.246668 
	C17.192272,29.922554 13.537626,30.674809 14.836170,26.100594 
z"/>
<path fill="#433D48" opacity="1.000000" stroke="none" 
	d="
M40.961342,37.501900 
	C41.264301,37.074234 41.377148,37.408180 41.340950,37.385044 
	C43.888683,40.143757 43.069782,42.859829 41.467205,45.560753 
	C40.864197,45.524235 40.261189,45.487720 39.658180,45.451202 
	C39.991581,42.943993 40.324982,40.436779 40.961342,37.501900 
z"/>
<path fill="#050406" opacity="1.000000" stroke="none" 
	d="
M37.990894,28.009407 
	C37.441685,29.951584 37.330715,32.127483 36.235561,32.890171 
	C34.521492,34.083874 32.145393,34.705917 30.042009,34.725128 
	C29.430157,34.730717 28.502373,31.903463 28.240524,30.290188 
	C27.925861,28.351482 27.913578,26.278473 28.247635,24.346121 
	C28.524986,22.741787 29.404501,20.025114 30.174210,19.969398 
	C31.906727,19.843988 34.219498,20.606653 35.400166,21.855164 
	C36.764946,23.298370 37.167534,25.651485 37.990894,28.009407 
z"/>
</svg>