<svg version="1.1" id="Layer_1" xmlns="http://www.w3.org/2000/svg" xmlns:xlink="http://www.w3.org/1999/xlink" x="0px" y="0px"
	 width="100%" viewBox="0 0 61 60" enable-background="new 0 0 61 60" xml:space="preserve">
<path fill="#010101" opacity="1.000000" stroke="none" 
	d="
M40.000290,61.000000 
	C26.666895,61.000000 13.833565,61.000000 1.000176,61.000000 
	C1.000117,41.000084 1.000117,21.000166 1.000059,1.000186 
	C21.333246,1.000124 41.666492,1.000124 61.999802,1.000062 
	C61.999870,20.999907 61.999870,40.999813 61.999935,60.999863 
	C54.833450,61.000000 47.666901,61.000000 40.000290,61.000000 
M41.824814,45.053333 
	C46.069595,44.495590 47.747128,42.057068 47.366531,37.849689 
	C47.157948,35.543877 47.333393,33.203106 47.339603,30.878113 
	C47.362984,22.122896 45.938412,20.500921 35.827728,18.406420 
	C36.907742,19.266748 37.435089,19.949284 38.118084,20.189774 
	C44.096264,22.294764 46.049717,26.576824 45.077972,32.583645 
	C44.894707,33.716511 44.914902,34.924290 45.078018,36.063595 
	C45.646423,40.033703 44.148403,42.795437 40.075836,44.590790 
	C39.791492,44.913845 39.507153,45.236897 39.222809,45.559952 
	C39.850876,45.416241 40.478947,45.272533 41.824814,45.053333 
M23.823448,44.658730 
	C28.351997,47.209808 32.694092,47.487171 36.832573,43.774834 
	C37.667812,43.025597 38.775600,42.528522 39.829002,42.084129 
	C42.673359,40.884212 42.317410,39.084976 41.416023,36.455612 
	C44.608990,30.968857 43.584282,26.033785 38.639797,23.130556 
	C37.206093,22.288733 35.829311,21.279839 34.292850,20.703905 
	C32.903732,20.183205 31.028343,19.538612 29.932899,20.084171 
	C28.975672,20.560892 28.138300,22.827391 28.479542,23.917742 
	C28.807533,24.965759 30.620722,25.879320 31.945803,26.229500 
	C38.809666,28.043411 41.329685,30.960850 40.366013,36.874222 
	C38.192738,34.850735 36.765686,34.517296 34.539112,37.463173 
	C32.715076,39.876472 29.282124,41.076454 26.555588,42.803551 
	C25.416912,43.524830 24.260605,44.218281 22.713913,45.394722 
	C22.345501,45.858639 21.558064,46.521313 21.670034,46.757374 
	C24.385759,52.482903 32.205929,53.023109 36.585453,47.173153 
	C31.233534,50.337551 26.569704,50.335220 23.823448,44.658730 
M18.075466,39.487785 
	C20.887259,39.056988 23.699053,38.626194 25.346958,38.373718 
	C24.022274,32.892239 22.993065,28.633427 21.907351,24.140795 
	C19.053761,24.126308 17.267275,25.364283 17.287027,28.500008 
	C17.308958,31.982002 17.485289,35.463024 18.075466,39.487785 
M15.382545,28.264565 
	C15.121521,27.144440 14.860497,26.024315 14.357091,23.864052 
	C11.446283,33.076324 12.754944,42.626163 15.395679,43.127831 
	C15.395679,38.588005 15.395679,33.846855 15.382545,28.264565 
z"/>
<path fill="#4C4750" opacity="1.000000" stroke="none" 
	d="
M41.016209,37.139069 
	C41.329685,30.960850 38.809666,28.043411 31.945803,26.229500 
	C30.620722,25.879320 28.807533,24.965759 28.479542,23.917742 
	C28.138300,22.827391 28.975672,20.560892 29.932899,20.084171 
	C31.028343,19.538612 32.903732,20.183205 34.292850,20.703905 
	C35.829311,21.279839 37.206093,22.288733 38.639797,23.130556 
	C43.584282,26.033785 44.608990,30.968857 41.190331,36.764259 
	C40.964634,37.072903 41.016209,37.139069 41.016209,37.139069 
z"/>
<path fill="#4B464E" opacity="1.000000" stroke="none" 
	d="
M17.834930,39.216125 
	C17.485289,35.463024 17.308958,31.982002 17.287027,28.500008 
	C17.267275,25.364283 19.053761,24.126308 21.907351,24.140795 
	C22.993065,28.633427 24.022274,32.892239 25.346958,38.373718 
	C23.699053,38.626194 20.887259,39.056988 17.834930,39.216125 
z"/>
<path fill="#4D4751" opacity="1.000000" stroke="none" 
	d="
M23.112312,44.924385 
	C24.260605,44.218281 25.416912,43.524830 26.555588,42.803551 
	C29.282124,41.076454 32.715076,39.876472 34.539112,37.463173 
	C36.765686,34.517296 38.192738,34.850735 40.691109,37.006645 
	C41.016209,37.139069 40.964634,37.072903 40.930008,37.049248 
	C42.317410,39.084976 42.673359,40.884212 39.829002,42.084129 
	C38.775600,42.528522 37.667812,43.025597 36.832573,43.774834 
	C32.694092,47.487171 28.351997,47.209808 23.452417,44.824326 
	C23.081387,44.989925 23.112312,44.924385 23.112312,44.924385 
z"/>
<path fill="#46404A" opacity="1.000000" stroke="none" 
	d="
M40.476776,44.389301 
	C44.148403,42.795437 45.646423,40.033703 45.078018,36.063595 
	C44.914902,34.924290 44.894707,33.716511 45.077972,32.583645 
	C46.049717,26.576824 44.096264,22.294764 38.118084,20.189774 
	C37.435089,19.949284 36.907742,19.266748 35.827728,18.406420 
	C45.938412,20.500921 47.362984,22.122896 47.339603,30.878113 
	C47.333393,33.203106 47.157948,35.543877 47.366531,37.849689 
	C47.747128,42.057068 46.069595,44.495590 41.308563,44.906021 
	C40.792309,44.758709 40.476776,44.389301 40.476776,44.389301 
z"/>
<path fill="#443E4A" opacity="1.000000" stroke="none" 
	d="
M15.389112,28.685133 
	C15.395679,33.846855 15.395679,38.588005 15.395679,43.127831 
	C12.754944,42.626163 11.446283,33.076324 14.357091,23.864052 
	C14.860497,26.024315 15.121521,27.144440 15.389112,28.685133 
z"/>
<path fill="#423C47" opacity="1.000000" stroke="none" 
	d="
M23.081093,44.957779 
	C26.569704,50.335220 31.233534,50.337551 36.585453,47.173153 
	C32.205929,53.023109 24.385759,52.482903 21.670034,46.757374 
	C21.558064,46.521313 22.345501,45.858639 22.913113,45.159554 
	C23.112312,44.924385 23.081387,44.989925 23.081093,44.957779 
z"/>
<path fill="#46404A" opacity="1.000000" stroke="none" 
	d="
M40.949661,44.943768 
	C40.478947,45.272533 39.850876,45.416241 39.222809,45.559952 
	C39.507153,45.236897 39.791492,44.913845 40.276306,44.490044 
	C40.476776,44.389301 40.792309,44.758709 40.949661,44.943768 
z"/>
</svg>