<svg version="1.1" id="Layer_1" xmlns="http://www.w3.org/2000/svg" xmlns:xlink="http://www.w3.org/1999/xlink" x="0px" y="0px"
	 width="100%" viewBox="0 0 61 63" enable-background="new 0 0 61 63" xml:space="preserve">
<path fill="#010001" opacity="1.000000" stroke="none" 
	d="
M43.001724,64.000000 
	C28.667976,64.000000 14.834693,64.000000 1.001057,64.000000 
	C1.000705,43.000546 1.000705,22.001093 1.000352,1.001229 
	C21.332712,1.000819 41.665424,1.000819 61.998604,1.000410 
	C61.999069,21.999304 61.999069,42.998608 61.999535,63.998955 
	C55.834064,64.000000 49.668129,64.000000 43.001724,64.000000 
M46.681099,14.943657 
	C40.491863,10.046636 31.033333,9.272917 24.459244,13.014905 
	C22.142939,14.333352 20.292517,15.755061 20.344837,18.482008 
	C18.942106,18.804049 16.898247,18.660133 16.260260,19.537970 
	C14.541052,21.903507 12.906185,24.565983 12.154395,27.357449 
	C9.183880,38.387241 15.891906,49.987778 26.820662,53.280136 
	C38.193413,56.706261 50.618637,50.520149 54.334484,39.581905 
	C57.432453,30.462503 55.085808,21.779678 47.544949,16.242207 
	C47.386639,15.967129 47.228329,15.692051 46.967529,15.450946 
	C46.967529,15.450946 47.102100,15.561169 46.681099,14.943657 
z"/>
<path fill="#4D4951" opacity="1.000000" stroke="none" 
	d="
M48.211685,16.926907 
	C55.085808,21.779678 57.432453,30.462503 54.334484,39.581905 
	C50.618637,50.520149 38.193413,56.706261 26.820662,53.280136 
	C15.891906,49.987778 9.183880,38.387241 12.154395,27.357449 
	C12.906185,24.565983 14.541052,21.903507 16.260260,19.537970 
	C16.898247,18.660133 18.942106,18.804049 20.722385,18.609499 
	C21.099934,18.736990 21.450602,18.952644 21.575909,19.328974 
	C21.172573,21.360189 20.760960,23.064054 20.092817,24.660561 
	C18.263186,29.032402 16.972010,33.360104 20.695015,39.180050 
	C24.753870,34.163170 28.345295,29.724047 31.920187,25.305359 
	C35.330467,33.532589 30.812700,39.255451 25.025517,44.360310 
	C30.885500,48.446106 36.997566,48.255611 41.544029,43.901817 
	C34.822540,39.364956 32.270847,33.237873 34.648384,25.530031 
	C38.393246,30.057713 42.062767,34.494308 46.376911,39.710274 
	C50.588020,31.073629 47.258720,25.120245 44.227112,18.902121 
	C45.706242,18.074131 46.958961,17.500519 48.211685,16.926907 
z"/>
<path fill="#4E4B53" opacity="1.000000" stroke="none" 
	d="
M21.450602,18.952644 
	C21.450602,18.952644 21.099934,18.736990 21.106419,18.772402 
	C20.292517,15.755061 22.142939,14.333352 24.459244,13.014905 
	C31.033333,9.272917 40.491863,10.046636 46.879028,15.229546 
	C47.076954,15.515434 47.070015,15.416972 47.070015,15.416972 
	C47.228329,15.692051 47.386639,15.967129 47.878319,16.584557 
	C46.958961,17.500519 45.706242,18.074131 43.818611,18.926785 
	C37.000946,17.229036 30.866306,15.733473 24.713032,19.501139 
	C24.003513,19.935579 22.555967,19.164692 21.450602,18.952644 
z"/>
<path fill="#4D4951" opacity="1.000000" stroke="none" 
	d="
M47.018772,15.433959 
	C47.070015,15.416972 47.076954,15.515434 47.089527,15.538301 
	C47.102100,15.561169 46.967529,15.450946 47.018772,15.433959 
z"/>
<path fill="#030204" opacity="1.000000" stroke="none" 
	d="
M21.575909,19.328974 
	C22.555967,19.164692 24.003513,19.935579 24.713032,19.501139 
	C30.866306,15.733473 37.000946,17.229036 43.592209,19.181164 
	C47.258720,25.120245 50.588020,31.073629 46.376911,39.710274 
	C42.062767,34.494308 38.393246,30.057713 34.648384,25.530031 
	C32.270847,33.237873 34.822540,39.364956 41.544029,43.901817 
	C36.997566,48.255611 30.885500,48.446106 25.025517,44.360310 
	C30.812700,39.255451 35.330467,33.532589 31.920187,25.305359 
	C28.345295,29.724047 24.753870,34.163170 20.695015,39.180050 
	C16.972010,33.360104 18.263186,29.032402 20.092817,24.660561 
	C20.760960,23.064054 21.172573,21.360189 21.575909,19.328974 
z"/>
</svg>