<svg version="1.1" id="Layer_1" xmlns="http://www.w3.org/2000/svg" xmlns:xlink="http://www.w3.org/1999/xlink" x="0px" y="0px"
	 width="100%" viewBox="0 0 54 56" enable-background="new 0 0 54 56" xml:space="preserve">
<path fill="#020102" opacity="1.000000" stroke="none" 
	d="
M35.000957,57.000000 
	C23.334106,57.000000 12.167458,57.000000 1.000607,57.000000 
	C1.000405,38.333633 1.000405,19.667267 1.000202,1.000674 
	C18.999670,1.000450 36.999340,1.000450 54.999260,1.000225 
	C54.999504,19.666307 54.999504,38.332615 54.999752,56.999462 
	C48.500385,57.000000 42.000774,57.000000 35.000957,57.000000 
M32.421661,48.482166 
	C36.510574,47.938969 38.335827,45.082916 40.338161,40.481220 
	C37.090195,40.302685 34.548229,40.162960 31.344946,40.242558 
	C28.520063,40.507267 25.695181,40.771976 22.737394,41.049141 
	C24.750113,46.950539 27.542265,48.918724 32.421661,48.482166 
M31.329752,34.841896 
	C29.021376,32.026012 26.531773,29.336851 24.451311,26.361597 
	C21.950558,22.785290 18.843382,22.318649 14.290109,23.740059 
	C17.008596,27.244392 19.448517,30.389629 22.200953,33.937721 
	C17.901520,35.465267 12.101062,31.159861 10.552160,38.771355 
	C16.685266,38.771355 22.594479,38.984119 28.464205,38.597446 
	C29.683889,38.517097 30.757215,36.214993 32.636421,34.960644 
	C39.829334,40.051552 43.308449,40.443039 46.771046,36.261471 
	C38.764103,35.487358 38.403381,29.400232 38.279949,23.625431 
	C31.436348,22.492050 29.734144,24.193516 30.994169,30.255070 
	C31.325033,31.846737 31.655560,33.438473 31.329752,34.841896 
M30.165298,17.859255 
	C24.193787,17.182259 18.108875,15.671316 12.731050,20.067753 
	C16.600082,21.271910 20.506035,21.110191 24.222212,21.872997 
	C27.689957,22.584812 29.578148,21.765999 30.165298,17.859255 
M45.950325,21.634411 
	C48.063751,20.941660 50.177177,20.248911 52.290604,19.556162 
	C52.140938,19.009201 51.991272,18.462240 51.841606,17.915279 
	C45.693844,17.968325 39.367020,16.170145 33.512737,19.257267 
	C33.537106,20.010920 33.561474,20.764574 33.585842,21.518229 
	C37.419384,21.518229 41.252930,21.518229 45.950325,21.634411 
M33.344528,15.638545 
	C38.713520,16.668758 43.367916,15.736289 47.075668,10.618381 
	C44.737343,10.107006 42.848324,9.457808 40.923000,9.321559 
	C36.805645,9.030190 32.722507,12.076612 33.344528,15.638545 
M18.727505,10.876207 
	C20.360630,16.272713 24.546534,17.589769 31.164665,14.222239 
	C27.457464,11.160359 23.966734,9.038483 18.727505,10.876207 
z"/>
<path fill="#4D4850" opacity="1.000000" stroke="none" 
	d="
M31.897993,34.936810 
	C30.757215,36.214993 29.683889,38.517097 28.464205,38.597446 
	C22.594479,38.984119 16.685266,38.771355 10.552160,38.771355 
	C12.101062,31.159861 17.901520,35.465267 22.200953,33.937721 
	C19.448517,30.389629 17.008596,27.244392 14.290109,23.740059 
	C18.843382,22.318649 21.950558,22.785290 24.451311,26.361597 
	C26.531773,29.336851 29.021376,32.026012 31.636047,34.912590 
	C31.942341,34.983280 31.897993,34.936810 31.897993,34.936810 
z"/>
<path fill="#4D4851" opacity="1.000000" stroke="none" 
	d="
M31.964291,35.006729 
	C31.655560,33.438473 31.325033,31.846737 30.994169,30.255070 
	C29.734144,24.193516 31.436348,22.492050 38.279949,23.625431 
	C38.403381,29.400232 38.764103,35.487358 46.771046,36.261471 
	C43.308449,40.443039 39.829334,40.051552 32.267208,34.948727 
	C31.897993,34.936810 31.942341,34.983280 31.964291,35.006729 
z"/>
<path fill="#49434C" opacity="1.000000" stroke="none" 
	d="
M30.276974,18.123371 
	C29.578148,21.765999 27.689957,22.584812 24.222212,21.872997 
	C20.506035,21.110191 16.600082,21.271910 12.731050,20.067753 
	C18.108875,15.671316 24.193787,17.182259 30.276974,18.123371 
z"/>
<path fill="#4E4852" opacity="1.000000" stroke="none" 
	d="
M45.518398,21.576321 
	C41.252930,21.518229 37.419384,21.518229 33.585842,21.518229 
	C33.561474,20.764574 33.537106,20.010920 33.512737,19.257267 
	C39.367020,16.170145 45.693844,17.968325 51.841606,17.915279 
	C51.991272,18.462240 52.140938,19.009201 52.290604,19.556162 
	C50.177177,20.248911 48.063751,20.941660 45.518398,21.576321 
z"/>
<path fill="#4B4851" opacity="1.000000" stroke="none" 
	d="
M33.007805,15.431407 
	C32.722507,12.076612 36.805645,9.030190 40.923000,9.321559 
	C42.848324,9.457808 44.737343,10.107006 47.075668,10.618381 
	C43.367916,15.736289 38.713520,16.668758 33.007805,15.431407 
z"/>
<path fill="#47424A" opacity="1.000000" stroke="none" 
	d="
M31.995544,48.018734 
	C27.542265,48.918724 24.750113,46.950539 22.737394,41.049141 
	C25.695181,40.771976 28.520063,40.507267 31.680138,40.576267 
	C32.008732,43.279564 32.002140,45.649147 31.995544,48.018734 
z"/>
<path fill="#4C4A52" opacity="1.000000" stroke="none" 
	d="
M18.956848,10.658411 
	C23.966734,9.038483 27.457464,11.160359 31.164665,14.222239 
	C24.546534,17.589769 20.360630,16.272713 18.956848,10.658411 
z"/>
<path fill="#4A474F" opacity="1.000000" stroke="none" 
	d="
M32.208603,48.250450 
	C32.002140,45.649147 32.008732,43.279564 32.010796,40.466606 
	C34.548229,40.162960 37.090195,40.302685 40.338161,40.481220 
	C38.335827,45.082916 36.510574,47.938969 32.208603,48.250450 
z"/>
</svg>