<svg version="1.1" id="Layer_1" xmlns="http://www.w3.org/2000/svg" xmlns:xlink="http://www.w3.org/1999/xlink" x="0px" y="0px"
	 width="100%" viewBox="0 0 55 57" enable-background="new 0 0 55 57" xml:space="preserve">
<path fill="#010001" opacity="1.000000" stroke="none" 
	d="
M34.000290,58.000000 
	C22.666897,58.000000 11.833568,58.000000 1.000179,58.000000 
	C1.000119,39.000088 1.000119,20.000175 1.000060,1.000197 
	C19.333239,1.000131 37.666477,1.000131 55.999786,1.000066 
	C55.999855,19.999897 55.999855,38.999794 55.999928,57.999847 
	C48.833450,58.000000 41.666901,58.000000 34.000290,58.000000 
M32.907646,11.417281 
	C25.700741,12.410503 18.493834,13.403726 11.286928,14.396948 
	C11.521667,14.922771 11.756405,15.448593 11.991143,15.974417 
	C10.355278,19.320589 8.488435,22.575901 7.129297,26.030933 
	C3.801578,34.490250 9.012414,41.844193 10.601264,49.659843 
	C10.714069,50.214737 12.176354,50.613731 13.072913,50.863747 
	C14.499451,51.261551 16.184261,51.115852 17.401917,51.819450 
	C27.056906,57.398403 36.104259,52.890915 45.263351,50.295658 
	C45.821060,50.137634 46.535686,49.545788 46.668152,49.026039 
	C48.130131,43.289570 50.546368,37.532356 50.573547,31.770712 
	C50.599125,26.348515 48.119850,20.902111 46.612343,15.502722 
	C46.447208,14.911255 45.483448,14.304042 44.787212,14.139513 
	C41.116199,13.272010 37.412174,12.544210 32.907646,11.417281 
z"/>
<path fill="#4C4851" opacity="1.000000" stroke="none" 
	d="
M33.313622,11.592609 
	C37.412174,12.544210 41.116199,13.272010 44.787212,14.139513 
	C45.483448,14.304042 46.447208,14.911255 46.612343,15.502722 
	C48.119850,20.902111 50.599125,26.348515 50.573547,31.770712 
	C50.546368,37.532356 48.130131,43.289570 46.668152,49.026039 
	C46.535686,49.545788 45.821060,50.137634 45.263351,50.295658 
	C36.104259,52.890915 27.056906,57.398403 17.401917,51.819450 
	C16.184261,51.115852 14.499451,51.261551 13.072913,50.863747 
	C12.176354,50.613731 10.714069,50.214737 10.601264,49.659843 
	C9.012414,41.844193 3.801578,34.490250 7.129297,26.030933 
	C8.488435,22.575901 10.355278,19.320589 11.991143,15.974417 
	C11.756405,15.448593 11.521667,14.922771 11.286928,14.396948 
	C18.493834,13.403726 25.700741,12.410503 33.313622,11.592609 
M38.480927,47.165958 
	C39.360046,46.405235 40.302246,45.705677 41.108398,44.874210 
	C48.180611,37.579887 48.054100,25.248636 40.370514,18.977024 
	C32.222229,12.326110 21.988110,12.936676 14.704293,21.132792 
	C9.471884,27.020559 9.512518,37.036789 14.485136,43.364147 
	C20.058409,50.455799 28.841337,52.039814 38.480927,47.165958 
z"/>
<path fill="#030203" opacity="1.000000" stroke="none" 
	d="
M38.163872,47.371712 
	C28.841337,52.039814 20.058409,50.455799 14.485136,43.364147 
	C9.512518,37.036789 9.471884,27.020559 14.704293,21.132792 
	C21.988110,12.936676 32.222229,12.326110 40.370514,18.977024 
	C48.054100,25.248636 48.180611,37.579887 41.108398,44.874210 
	C40.302246,45.705677 39.360046,46.405235 38.163872,47.371712 
M30.677736,29.320597 
	C30.158030,28.016678 29.638321,26.712757 28.551077,23.984921 
	C27.325886,27.694771 26.579212,29.955681 25.714340,32.574493 
	C22.674927,24.110584 22.674927,24.110584 17.443308,23.318245 
	C18.826366,29.171509 20.007639,34.770336 21.546972,40.268921 
	C21.937683,41.664566 23.386297,43.636307 24.494965,43.737190 
	C25.870668,43.862373 27.398329,42.317619 27.980539,41.989708 
	C30.313078,42.958599 32.649288,43.929020 35.109867,44.951099 
	C36.527393,36.937641 37.704967,30.280655 38.939926,23.299274 
	C37.089298,23.299274 35.518211,23.299274 33.851643,23.299274 
	C33.367348,25.645666 32.963238,27.759485 32.431702,29.840761 
	C32.394848,29.985073 31.410013,29.887281 30.677736,29.320597 
z"/>
<path fill="#4A4852" opacity="1.000000" stroke="none" 
	d="
M30.771881,29.611336 
	C31.410013,29.887281 32.394848,29.985073 32.431702,29.840761 
	C32.963238,27.759485 33.367348,25.645666 33.851643,23.299274 
	C35.518211,23.299274 37.089298,23.299274 38.939926,23.299274 
	C37.704967,30.280655 36.527393,36.937641 35.109867,44.951099 
	C32.649288,43.929020 30.313078,42.958599 27.980539,41.989708 
	C27.398329,42.317619 25.870668,43.862373 24.494965,43.737190 
	C23.386297,43.636307 21.937683,41.664566 21.546972,40.268921 
	C20.007639,34.770336 18.826366,29.171509 17.443308,23.318245 
	C22.674927,24.110584 22.674927,24.110584 25.714340,32.574493 
	C26.579212,29.955681 27.325886,27.694771 28.551077,23.984921 
	C29.638321,26.712757 30.158030,28.016678 30.771881,29.611336 
z"/>
</svg>